# xmcd
#
# Track frame offsets: 
#        183
#        14075
#        27770
#        41948
#        54205
#        67460
#        80565
#        93590
#        106213
#        117978
#        130000
#        142675
#        155338
#        168148
#        181415
#        193855
#        206880
#        220553
#
# Disc length: 3102 seconds
#
# Revision: 7
# Processed by: cddbd v1.5.2PL0 Copyright (c) Steve Scherf et al.
# Submitted via: ExactAudioCopyFreeDBPlugin 1.0
#
DISCID=fe0c1c12
DTITLE=Big Bill Broonzy - Whiskey and Good Time Blues
DYEAR=1935
DGENRE=Blues
TTITLE0=She Caught The Train
TTITLE1=The Dozen
TTITLE2=Don't Tear My Clothes
TTITLE3=Ash Havler
TTITLE4=Out With The Wrong Woman
TTITLE5=Down In The Alley
TTITLE6=Stuff They Call Money
TTITLE7=Good Boy
TTITLE8=Unemployment Stomp
TTITLE9=Rider Rider Blues
TTITLE10=Whiskey and Good Time Blues
TTITLE11=Make My Get Away
TTITLE12=Looking For My Baby
TTITLE13=My Mellow Man
TTITLE14=Knockin' Myself Out
TTITLE15=Key To The Highway
TTITLE16=Wee Wee Blues
TTITLE17=Conversation With The Blues
EXTD=YEAR: 1935
EXTT0=
EXTT1=
EXTT2=
EXTT3=
EXTT4=
EXTT5=
EXTT6=
EXTT7=
EXTT8=
EXTT9=
EXTT10=
EXTT11=
EXTT12=
EXTT13=
EXTT14=
EXTT15=
EXTT16=
EXTT17=
PLAYORDER=
